<?xml version="1.0" standalone="no"?>
<!DOCTYPE svg PUBLIC "-//W3C//DTD SVG 20010904//EN"
 "http://www.w3.org/TR/2001/REC-SVG-20010904/DTD/svg10.dtd">
<svg version="1.0" xmlns="http://www.w3.org/2000/svg"
 width="500.000000pt" height="500.000000pt" viewBox="0 0 500.000000 500.000000"
 preserveAspectRatio="xMidYMid meet">
<metadata>
Created by potrace 1.11, written by Peter Selinger 2001-2013
</metadata>
<g transform="translate(0.000000,500.000000) scale(0.100000,-0.100000)"
fill="#000000" stroke="none">
<path d="M2298 4995 c-3 -4 -23 -8 -45 -10 -75 -6 -133 -15 -235 -35 -133 -27
-131 -27 -197 -46 -31 -9 -62 -17 -68 -17 -7 0 -13 -3 -13 -7 0 -4 -6 -7 -12
-7 -23 0 -212 -74 -308 -121 -190 -93 -421 -243 -548 -358 -91 -81 -137 -128
-134 -138 2 -6 0 -8 -3 -4 -12 11 -128 -116 -243 -267 -18 -23 -112 -163 -137
-204 -27 -43 -155 -295 -155 -304 0 -2 -8 -22 -17 -43 -9 -22 -18 -43 -19 -49
-1 -5 -11 -35 -22 -65 -22 -59 -62 -192 -67 -225 -2 -11 -4 -20 -5 -20 -1 0
-3 -9 -5 -20 -3 -11 -9 -42 -15 -70 -15 -70 -26 -143 -34 -230 -2 -16 -6 -37
-10 -46 -8 -18 -2 -396 7 -454 3 -22 8 -60 11 -85 3 -25 8 -56 11 -70 2 -14 8
-41 11 -60 24 -148 97 -387 162 -530 53 -118 62 -137 102 -210 216 -394 545
-730 940 -962 247 -144 591 -267 855 -304 17 -2 48 -6 70 -10 22 -3 60 -8 85
-12 62 -8 425 -8 480 1 25 3 67 9 94 13 27 3 58 8 70 10 12 3 36 7 53 10 18 2
61 11 95 19 35 9 74 18 87 21 109 23 423 145 511 199 19 12 42 24 51 28 63 23
306 191 428 297 86 73 238 228 259 263 9 15 20 27 24 27 11 0 144 182 212 289
141 225 284 584 322 811 3 14 7 36 9 50 13 62 15 78 20 125 3 28 9 68 13 90 9
53 9 419 -1 470 -4 22 -10 65 -13 95 -4 30 -8 66 -9 80 -2 14 -4 25 -5 25 -1
0 -3 11 -6 25 -11 65 -49 214 -75 300 -31 98 -33 103 -68 182 -12 26 -21 50
-21 53 0 3 -22 49 -49 103 -156 312 -356 573 -606 787 -39 33 -71 63 -73 68
-2 4 -10 7 -18 7 -8 0 -14 4 -14 8 0 5 -26 26 -57 48 -32 21 -60 41 -63 45 -6
6 -109 71 -178 111 -202 119 -521 238 -727 273 -16 3 -50 10 -75 15 -25 5 -67
12 -95 16 -27 3 -68 9 -90 12 -60 8 -440 14 -447 7z m362 -299 c52 -3 106 -8
120 -11 14 -3 45 -8 70 -11 25 -3 61 -9 80 -14 19 -5 49 -12 65 -14 17 -3 62
-15 100 -27 39 -11 79 -23 90 -26 11 -2 29 -8 40 -13 11 -5 52 -21 90 -35 89
-35 221 -100 309 -153 37 -23 72 -42 76 -42 5 0 10 -4 12 -8 2 -5 26 -23 53
-42 28 -18 52 -36 55 -40 3 -3 23 -19 45 -36 59 -43 100 -80 195 -174 278
-279 472 -618 575 -1010 4 -17 26 -121 30 -143 3 -15 7 -39 10 -54 16 -85 20
-159 20 -348 0 -115 -4 -230 -8 -255 -4 -25 -9 -58 -11 -75 -10 -72 -16 -100
-46 -217 -96 -374 -303 -733 -583 -1010 -43 -42 -96 -92 -118 -110 -23 -18
-53 -43 -67 -56 -15 -12 -58 -44 -97 -70 -38 -26 -72 -50 -75 -53 -20 -24
-274 -154 -385 -196 -49 -20 -101 -40 -115 -46 -14 -5 -32 -11 -40 -13 -8 -1
-24 -5 -35 -7 -180 -47 -235 -59 -365 -74 -66 -9 -449 -8 -505 0 -22 3 -58 8
-80 11 -265 33 -603 163 -860 331 -217 141 -410 320 -551 508 -41 56 -82 110
-90 120 -8 9 -14 19 -14 21 0 2 -19 35 -42 72 -70 116 -156 305 -199 440 -23
71 -43 136 -46 144 -3 8 -7 24 -8 35 -1 11 -10 56 -19 100 -28 142 -37 235
-36 410 0 145 8 248 26 350 7 38 44 217 48 230 2 6 4 12 5 15 4 18 63 185 81
230 51 131 170 343 263 469 106 144 251 296 390 409 77 63 248 181 258 178 4
0 15 6 25 15 24 21 176 99 192 99 7 0 12 3 12 8 0 4 15 12 33 18 17 7 76 28
129 48 54 19 108 38 120 41 13 3 69 16 125 29 91 22 122 27 223 42 14 2 70 6
125 10 55 3 101 7 102 8 2 2 99 -2 203 -8z"/>
<path d="M1109 3800 c-24 -9 -43 -22 -41 -29 1 -7 -2 -10 -7 -7 -5 4 -20 -11
-33 -31 l-23 -38 -1 -1183 c0 -869 3 -1191 11 -1216 13 -37 35 -62 80 -91 29
-19 63 -20 1390 -20 748 -1 1374 2 1391 7 39 10 95 66 109 110 8 24 11 367 11
1213 -2 1270 1 1199 -51 1249 -59 55 50 51 -1431 52 -1248 1 -1365 -1 -1405
-16z m2000 -121 c35 -21 62 -86 49 -118 -5 -14 -8 -26 -6 -26 1 0 -4 -9 -12
-21 -50 -68 -131 -72 -197 -9 -6 7 -16 28 -21 47 -15 53 13 108 67 135 44 22
73 20 120 -8z m345 -14 c30 -28 40 -63 32 -109 -23 -123 -191 -129 -233 -9
-12 32 4 94 30 120 8 8 31 20 52 28 45 15 80 6 119 -30z m312 14 c35 -21 60
-71 55 -109 -3 -28 -31 -80 -42 -80 -4 0 -15 -7 -23 -16 -33 -33 -121 -13
-152 34 -47 72 -29 142 46 179 48 23 66 22 116 -8z m55 -359 c0 -14 1 -459 1
-990 l2 -965 -1324 0 -1323 0 1 975 c0 536 1 982 1 990 1 13 155 15 1321 15
l1320 0 1 -25z"/>
<path d="M2562 2887 c-13 -15 -30 -58 -36 -90 -2 -12 -19 -78 -36 -147 -17
-69 -33 -134 -35 -145 -3 -11 -7 -32 -11 -47 -3 -15 -5 -30 -5 -33 0 -2 -5
-19 -10 -37 -6 -18 -12 -40 -14 -48 -2 -8 -11 -46 -20 -85 -9 -38 -18 -77 -20
-85 -2 -8 -10 -42 -18 -75 -31 -122 -31 -142 -4 -160 48 -31 102 -2 114 62 9
44 13 66 27 123 9 36 21 81 26 100 6 19 12 47 14 62 3 15 7 32 10 36 3 5 8 24
10 43 3 19 13 61 22 94 9 33 18 68 20 78 2 9 6 26 9 37 3 11 7 28 9 39 2 10 9
35 14 55 6 20 8 36 5 36 -3 0 0 7 7 15 7 8 10 15 6 15 -3 0 -1 11 4 24 5 13
11 45 14 70 5 39 2 47 -16 61 -27 18 -72 20 -86 2z"/>
<path d="M1970 2644 c-146 -64 -288 -126 -316 -139 l-51 -23 0 -73 c-1 -66 11
-101 32 -99 7 0 37 -12 320 -136 133 -57 246 -104 253 -104 7 0 12 -4 12 -10
0 -5 7 -10 15 -10 12 0 15 16 15 88 0 99 10 86 -110 132 -30 11 -64 25 -75 29
-11 5 -75 31 -143 57 -67 26 -119 50 -115 54 7 6 384 151 426 164 14 5 17 18
17 96 0 49 -3 90 -7 89 -5 0 -127 -52 -273 -115z"/>
<path d="M2750 2671 l0 -89 118 -45 c64 -25 165 -65 225 -87 59 -23 105 -46
102 -51 -4 -5 -13 -9 -20 -9 -8 0 -29 -7 -47 -15 -18 -8 -111 -45 -205 -82
l-173 -67 0 -88 c0 -48 2 -88 4 -88 3 0 57 23 134 56 17 8 47 20 65 28 17 7
68 29 112 49 44 19 114 50 155 67 41 18 98 43 126 55 l51 23 -1 78 -1 77 -80
34 c-44 19 -93 40 -110 47 -16 8 -79 35 -140 61 -60 26 -128 55 -150 65 -112
50 -158 70 -161 70 -2 0 -4 -40 -4 -89z"/>
</g>
</svg>
